# xmcd CD database file
#
# Track frame offsets:
#	150
#	12960
#	27327
#	43877
#	61885
#	79067
#	92222
#	113772
#	126175
#	145860
#	163500
#	175065
#	195510
#	203850
#	224662
#
# Disc length: 3091 seconds
#
# Revision: 3
# Processed by: cddbd v1.5PL3 Copyright (c) Steve Scherf et al.
# Submitted via: CDex 1.51
#
DISCID=d20c110f
DTITLE=Various Artist - Roots Of The Blues CD 1 Folk Blues
DYEAR=2002
DGENRE=Blues
TTITLE0=Jesse Fuller - San Francsco Bay Blues
TTITLE1=Chambers Brothers - See See Rider
TTITLE2=John Hammond - Statesboro Blues
TTITLE3=Elizabeth Cotten - Freight Train
TTITLE4=Dave van Ronk - Cocaine
TTITLE5=Buffy Sainte-Marie - You're Gonna Need Somebody On Your Bond
TTITLE6=Spider John Koerner - Traveling Blues
TTITLE7=Bill Monroe - Blue Yodel#4
TTITLE8=Jim Kweskin Jug Band - Richland Woman
TTITLE9=Jim Kweskin Jug Band - Chevrolet
TTITLE10=Sam and Kirk McGee - Milk Cow Blues
TTITLE11=Tony Glover - I Don't Need No Whiskey
TTITLE12=Josh White - What You Gonna Do When Your Meat Gives Out
TTITLE13=Eric von Schmidt - Grizzly Bear
TTITLE14=Mance Lipscomb - Keep On Truckin' Mama
EXTD=YEAR: 2002
EXTT0=
EXTT1=
EXTT2=
EXTT3=
EXTT4=
EXTT5=
EXTT6=
EXTT7=
EXTT8=
EXTT9=
EXTT10=
EXTT11=
EXTT12=
EXTT13=
EXTT14=
PLAYORDER=
